<?xml version="1.0" encoding="UTF-8" standalone="no"?>
<!-- Created with Inkscape (http://www.inkscape.org/) -->

<svg
   width="400.69595mm"
   height="40.824768mm"
   viewBox="0 0 400.69595 40.824768"
   version="1.1"
   id="svg5"
   xml:space="preserve"
   xmlns="http://www.w3.org/2000/svg"
   xmlns:svg="http://www.w3.org/2000/svg"><defs
     id="defs2" /><g
     id="layer1"
     transform="translate(42.588941,53.15151)"><g
       id="g859"><path
         id="rect616"
         style="fill:#2f4f4f;stroke-width:0.141773;stroke-linejoin:bevel"
         d="m -42.588941,-53.151507 v 40.613542 H 207.2877 l 66.14536,-40.613542 z m 393.044021,0 -66.14462,40.613542 h 73.79656 v -40.613542 z" /><text
         xml:space="preserve"
         style="font-weight:bold;font-size:9.49243px;font-family:'Ginger Cat';-inkscape-font-specification:'Ginger Cat, Bold';fill:#f0fff0;stroke-width:0.1;stroke-linejoin:bevel"
         x="38.281963"
         y="-16.627655"
         id="text728"><tspan
           id="tspan726"
           style="stroke-width:0.1"
           x="38.281963"
           y="-16.627655">Tradiciones, Usos y Costumbres</tspan></text><text
         xml:space="preserve"
         style="font-weight:bold;font-size:24.473px;font-family:'Ginger Cat';-inkscape-font-specification:'Ginger Cat, Bold';fill:#f0fff0;stroke-width:0.257816;stroke-linejoin:bevel"
         x="-30.838316"
         y="-42.348225"
         id="text782"
         transform="scale(1.2398078,0.80657664)"><tspan
           id="tspan780"
           style="stroke-width:0.257816"
           x="-30.838316"
           y="-42.348225">CORRIENTES</tspan></text><path
         id="path822"
         style="fill:#2f4f4f;stroke-width:0.0979315"
         d="m 279.00564,-12.913588 c -0.57473,-0.354229 -1.07829,-0.669911 -1.11903,-0.701514 -0.0407,-0.03159 -0.1255,-0.364369 -0.18835,-0.739481 -0.18392,-1.097476 -0.17095,-1.07345 -0.64573,-1.196183 -0.23742,-0.06139 -0.44721,-0.15501 -0.46619,-0.208063 -0.019,-0.05304 -0.10937,-0.329031 -0.20072,-0.61327 -0.15509,-0.482275 -0.20561,-0.536258 -0.75646,-0.808185 -0.57704,-0.28486 -0.59823,-0.288115 -0.9457,-0.145142 l -0.35544,0.146248 -1.08298,-0.587823 c -1.06018,-0.575448 -1.09828,-0.587842 -1.8107,-0.588853 -0.63353,-0.0013 -0.89863,0.05897 -2.04809,0.462406 l -1.32037,0.463444 -0.73218,-0.09376 -0.73219,-0.09377 -1.08385,0.721919 c -0.59611,0.397059 -1.11995,0.721925 -1.16408,0.721925 -0.0442,0 -0.2979,-0.119263 -0.56391,-0.265032 l -0.48366,-0.265033 -1.0538,0.19848 -1.0538,0.198479 -0.21944,0.399634 -0.21945,0.399628 -0.17555,-0.37856 c -0.12351,-0.266339 -0.23769,-0.378566 -0.38513,-0.378566 -0.13788,0 -0.2822,-0.122814 -0.42187,-0.359075 l -0.21232,-0.359076 0.30428,-0.155083 c 0.2742,-0.139751 0.34747,-0.292585 0.74137,-1.546272 l 0.43711,-1.391188 -0.42578,-0.730666 c -0.51916,-0.890913 -0.53525,-1.173656 -0.0938,-1.647681 l 0.33204,-0.356487 -0.0716,-1.389288 c -0.0394,-0.764108 -0.0986,-1.634889 -0.13157,-1.935081 l -0.0599,-0.545801 0.49565,-0.22742 c 0.52744,-0.242003 0.68482,-0.461644 0.68482,-0.955705 0,-0.356623 0.0479,-0.391224 0.89073,-0.643067 0.58597,-0.175093 0.63965,-0.21468 0.74033,-0.545983 0.15322,-0.504245 0.1818,-0.530388 1.09841,-1.004339 0.77126,-0.398798 0.83086,-0.452181 0.94267,-0.844254 0.0657,-0.230202 0.31151,-1.12406 0.54638,-1.986363 l 0.42703,-1.567824 -0.19913,-0.334894 -0.19912,-0.334894 0.3522,-0.962742 c 0.19371,-0.529505 0.35216,-1.044608 0.35211,-1.144677 -6e-5,-0.100062 -0.14029,-0.591278 -0.31162,-1.091601 l -0.31153,-0.909663 0.22829,-0.150088 c 0.12556,-0.08255 0.61225,-0.345611 1.08154,-0.584575 0.82521,-0.420195 0.87125,-0.461974 1.40113,-1.271399 l 0.54787,-0.836928 -0.15991,-0.46461 c -0.14328,-0.416287 -0.1431,-0.492667 0.002,-0.734454 0.11097,-0.185054 0.16173,-0.532369 0.16173,-1.105371 0,-0.752011 -0.024,-0.854754 -0.23972,-1.027893 -0.44041,-0.353401 -0.60373,-0.634331 -0.60373,-1.038461 0,-0.350584 0.0748,-0.475272 0.6492,-1.081756 l 0.64919,-0.685498 0.44022,0.05203 c 0.41392,0.04892 0.46765,0.02797 0.8996,-0.351811 0.33243,-0.292266 0.64227,-0.456387 1.12117,-0.593894 0.60612,-0.174035 0.72708,-0.180552 1.43785,-0.0775 l 0.77604,0.112509 0.48281,-0.286612 0.48281,-0.286612 0.4578,0.169971 c 0.36268,0.134656 0.85067,0.182722 2.34867,0.231368 l 1.89087,0.06139 3.80231,1.005457 c 2.09126,0.553006 3.99209,1.054946 4.22403,1.115427 0.41583,0.108443 0.42922,0.104489 0.96023,-0.283081 0.4586,-0.334726 0.60723,-0.392746 1.00157,-0.390974 0.40444,0.002 0.54984,0.06456 1.14836,0.495747 l 0.68529,0.493664 0.43509,-0.367237 c 0.41425,-0.34966 0.46221,-0.365774 1.00157,-0.336559 l 0.56649,0.03067 0.3241,0.526547 c 0.43674,0.709531 0.53225,0.776313 1.20832,0.844786 l 0.58355,0.0591 0.4971,-0.520986 c 0.4467,-0.468182 0.49758,-0.568351 0.50179,-0.988123 l 0.005,-0.467124 0.78371,-0.474342 0.78372,-0.474342 0.68761,0.0554 0.6876,0.05539 v 0.488502 c 0,0.443603 -0.0287,0.503523 -0.31155,0.651975 l -0.31154,0.163474 1.19335,1.65436 c 1.26607,1.755197 1.24944,1.717072 1.39192,3.191136 l 0.0708,0.732216 1.19318,0.923323 1.19316,0.923316 -0.4437,0.454575 c -0.45633,0.467515 -0.74171,0.615232 -1.18857,0.615232 -0.14118,0 -0.2567,0.02743 -0.2567,0.06099 0,0.03357 0.23837,0.24846 0.5297,0.477577 0.43432,0.341553 0.54544,0.492821 0.61708,0.839968 0.0867,0.420486 0.0851,0.423775 -0.23279,0.478641 -0.3375,0.05823 -0.48773,-0.04387 -0.49067,-0.333492 -0.001,-0.133571 -0.11189,-0.161634 -0.6869,-0.174352 -0.37691,-0.0083 -0.76809,-0.01854 -0.86928,-0.02271 -0.16183,-0.0067 -0.17978,0.07108 -0.14902,0.64564 l 0.035,0.653229 -0.75929,0.06456 -0.75929,0.06456 0.0649,0.601234 0.065,0.601241 -0.90117,0.934975 -0.90117,0.934976 -0.49664,-0.05681 c -0.41426,-0.04744 -0.52823,-0.02669 -0.6872,0.124862 -0.16405,0.156405 -0.17446,0.233431 -0.0747,0.553108 0.0959,0.306999 0.0853,0.422925 -0.0605,0.668528 -0.20369,0.342988 -0.32798,0.429705 -0.62147,0.433581 -0.37067,0.0047 -0.47198,0.134338 -0.53797,0.687357 -0.0355,0.297383 -0.12112,0.592473 -0.19032,0.655757 -0.0692,0.06328 -0.40955,0.158184 -0.75635,0.210893 -0.59492,0.09042 -0.6584,0.125862 -1.12337,0.627208 -0.40159,0.433029 -0.53316,0.671817 -0.71081,1.290068 -0.31066,1.081177 -0.35551,1.151031 -0.76088,1.184655 -0.32264,0.02676 -0.35943,0.06429 -0.50626,0.516127 -0.14453,0.444749 -0.32716,0.637263 -2.09257,2.205944 l -1.93422,1.718674 h -0.5131 c -0.50854,0 -0.51682,0.0047 -0.93871,0.540815 -0.39027,0.495854 -0.42564,0.590403 -0.42564,1.137431 v 0.596617 l -1.43012,1.021443 c -1.16366,0.831133 -1.48443,1.016524 -1.72165,0.995059 -0.16458,-0.0149 -0.34916,0.03349 -0.42387,0.111218 -0.10903,0.113304 -0.0861,0.190493 0.12926,0.437321 l 0.26162,0.299728 -0.22628,0.539398 c -0.24034,0.572927 -0.10033,0.456138 -2.28215,1.903526 -0.51989,0.344882 -0.5832,0.424009 -0.61214,0.764939 -0.0271,0.319388 0.0362,0.467258 0.39537,0.92361 0.75612,0.960699 0.55341,1.005302 -0.79414,0.174746 z" /></g></g></svg>
